<svg xmlns="http://www.w3.org/2000/svg" width="190" height="37"><path d="M91.98 19.156s3.13 7.096 3.558 8.076c.39.873 0 1.46-1.101 1.863a8.212 8.212 0 01-3.801.392 1.473 1.473 0 01-1.218-.98l-2.174-5.881-1.257 1.107-.76 3.92c-.322 1.598-.897 1.794-2.096 1.892a6.42 6.42 0 01-3.187-.548c-.77-.373-1.19-.785-.858-2.088L83.54 3.905c.273-1.392.497-1.96 2.486-1.96a6.056 6.056 0 013.05.843c.577.444.821 1.2.614 1.901-.565 2.94-2.339 12.085-2.339 12.085s4.425-4.45 5.263-5.224c.839-.774 1.404-1.225 1.95-1.245a5.136 5.136 0 013.021.98c1.033.794 1.17 1.833.4 2.559l-6.004 5.312zm36.327 8.253c0 .558-.059.98-.975 1.303a17.61 17.61 0 01-6.374.98c-5.322-.166-7.924-3.205-7.798-8.096.185-5.694 4.172-11.565 10.975-11.35 3.84.128 6.384 2.539 6.316 6.058-.156 4.9-4.435 6.704-11.423 6.253.056.495.267.958.604 1.323a4.497 4.497 0 003.05 1.049 11.101 11.101 0 003.188-.431c.867-.236 1.14-.06 1.676.637.433.685.694 1.465.76 2.274zm-8.548-9.42c3.46.187 4.96-.45 5-1.754a1.347 1.347 0 00-.427-1.032 1.33 1.33 0 00-1.055-.35 3.613 3.613 0 00-3.518 3.137zm-42.35 9.42c0 .558-.058.98-.974 1.303a17.61 17.61 0 01-6.374.98c-5.322-.166-7.924-3.205-7.798-8.096.186-5.694 4.172-11.565 10.975-11.35 3.84.128 6.384 2.539 6.316 6.058-.156 4.9-4.444 6.704-11.423 6.253.056.495.268.958.604 1.323a4.487 4.487 0 003.041 1.049 10.995 10.995 0 003.187-.431c.868-.236 1.15-.06 1.677.637.436.684.7 1.464.77 2.274zm-8.547-9.42c3.46.187 4.96-.45 5-1.754 0-.764-.487-1.352-1.472-1.382a3.613 3.613 0 00-3.528 3.137zM31.21 27.41c0 .558 0 .98-.975 1.303a17.58 17.58 0 01-6.374.98c-5.312-.166-7.924-3.205-7.798-8.096.186-5.694 4.182-11.565 10.985-11.35 3.83.128 6.384 2.539 6.306 6.058-.156 4.9-4.435 6.704-11.423 6.253.06.493.271.956.604 1.323a4.536 4.536 0 003.05 1.049 11.043 11.043 0 003.188-.431c.868-.236 1.15-.06 1.676.637.433.685.694 1.465.76 2.274zm-8.538-9.42c3.45.187 4.96-.45 5-1.754 0-.764-.488-1.352-1.482-1.382a3.604 3.604 0 00-3.509 3.137h-.01zm142.944 9.42c0 .558-.059.98-.975 1.303a17.61 17.61 0 01-6.374.98c-5.322-.166-7.924-3.205-7.798-8.096.186-5.694 4.172-11.565 10.975-11.35 3.84.128 6.384 2.539 6.316 6.058-.156 4.9-4.445 6.704-11.423 6.253.056.495.267.958.604 1.323a4.487 4.487 0 003.041 1.049 10.995 10.995 0 003.187-.431c.868-.236 1.15-.06 1.677.637.44.683.707 1.463.78 2.274h-.01zm-8.548-9.42c3.46.187 4.96-.45 5-1.754 0-.764-.487-1.352-1.472-1.382a3.613 3.613 0 00-3.518 3.137h-.01zm-100.03-7.84a7.28 7.28 0 00-5.935 3.155 3.776 3.776 0 00-4.065-3.156 7.026 7.026 0 00-5.926 3.166s.137-.637.176-.852a1.483 1.483 0 00-.722-1.716 5.82 5.82 0 00-2.65-.598c-.975 0-1.745.079-2.008 1.451l-2.924 15.192c-.186.98-.069 1.343.38 1.725.832.59 1.803.952 2.817 1.05 1.14.136 2.358-.08 2.543-.981l1.501-7.773c.702-3.626 2.154-5.616 3.529-5.616.838 0 1.179.686 1.179 1.686-.02.758-.112 1.513-.273 2.254l-1.53 7.792c-.23.61-.027 1.3.497 1.686.85.558 1.825.895 2.836.98 1.589.138 2.28-.254 2.564-1.715l1.364-7.057c.702-3.646 1.95-5.616 3.363-5.616.877 0 1.286.647 1.286 1.568-.021.797-.11 1.59-.263 2.372l-1.5 7.704a1.554 1.554 0 00.447 1.735c.872.58 1.881.917 2.924.98 1.394.127 2.252-.216 2.554-1.774l1.803-9.321c.2-1.138.327-2.287.38-3.44-.048-2.902-1.374-4.891-4.337-4.891l-.01.01zm130-7.224c-.859.029-1.669.412-2.24 1.058a3.167 3.167 0 00-.78 2.362 2.683 2.683 0 00.843 1.962c.54.507 1.265.766 2.002.714a3.082 3.082 0 002.327-1.01 3.118 3.118 0 00.792-2.42 2.731 2.731 0 00-.896-1.976 2.7 2.7 0 00-2.047-.69zM21.085 5.757a1.97 1.97 0 00.049-2.185A6.578 6.578 0 0018.54.974c-1.433-.764-2.524-.696-3.401.882-1.024 1.853-2.135 3.715-3.227 5.577l-3.06 5.225c-.205-.54-1.306-5.656-1.89-8.116a3.771 3.771 0 00-.878-1.696 5.58 5.58 0 00-3.899-1.744C.372 1.092-.115 1.65.022 3.18c.058.558.136 1.107.243 1.656a46.453 46.453 0 002.924 9.458 22.216 22.216 0 001.95 3.51c.272.312.32.764.116 1.127-.974 2.117-2.037 4.224-2.924 6.38a14.32 14.32 0 00-1.208 6.214 2.71 2.71 0 001.12 2.098 4.251 4.251 0 003.49.833 2.636 2.636 0 002.378-2.02 60.693 60.693 0 017.798-18.994c1.832-2.705 3.48-5.136 5.175-7.685zm167.262 5.156a6.412 6.412 0 00-2.973-.637c-1.608 0-1.95.421-2.193 1.539 0 .049-2.212 15.574-2.212 15.574-.101.356-.055.739.129 1.06.183.321.488.554.845.646a6.594 6.594 0 003.324.49c1.14-.147 1.696-.343 1.95-2.049l2.085-14.702a1.698 1.698 0 00-.955-1.921zm-9.503 14.065a1.14 1.14 0 00-1.316-.814c-.38.05-1.19.285-1.52 0a1.306 1.306 0 01-.478-.98c.067-.66.178-1.315.331-1.96l1.17-6.038h2.7a1.456 1.456 0 001.199-1.166c.214-1.059.292-1.558.35-2.088a1.357 1.357 0 00-.417-.991 1.34 1.34 0 00-1.006-.371h-1.949s.614-3.048.614-3.137a1.28 1.28 0 00-.087-.991 1.269 1.269 0 00-.77-.626 7.575 7.575 0 00-3.07-.598c-1.268 0-1.775.304-2.116 1.96l-.653 3.392h-1.238a1.22 1.22 0 00-1.198.98c-.098.51-.254 1.255-.4 2.039-.088.49-.263 1.49 1.189 1.568h.76l-1.325 6.95a14.416 14.416 0 00-.39 3.165c.127 2.568 1.735 4.283 5.117 4.283a6.927 6.927 0 003.245-.754c1.326-.667 1.482-.98 1.55-1.96a4.384 4.384 0 00-.292-1.863zm-66.862-9.801a4.108 4.108 0 001.326-1.96c.302-.98.321-1.5-1.19-2.275a12.054 12.054 0 00-5.136-.843c-4.98.147-8.246 2.94-8.012 6.93.127 2.215 2.135 3.803 4.26 4.9 1.608.795 2.173 1.314 2.212 2.04.039.725-.497 1.313-1.754 1.352a10.135 10.135 0 01-3.9-.725c-.876-.432-1.256-.196-1.588.235a4.256 4.256 0 00-.974 2.244c-.088.98.117 1.441 1.208 1.96 1.584.616 3.274.905 4.97.854 5.176-.118 8.617-2.627 8.364-6.98-.137-2.361-2.418-3.92-4.62-5.106-1.287-.607-1.95-1.117-1.95-1.695-.058-.873.76-1.363 2.047-1.402 1.018.003 2.031.145 3.012.422l.263.078c.975.323 1.062.265 1.462-.049v.02zm37.3 2.038c0 6.46-3.967 12.654-10.204 12.644a8.115 8.115 0 01-1.95-.245 4.1 4.1 0 01-.974-.412h-.078s-.975 5.205-.975 5.244c-.36 1.706-.829 1.882-2.125 2.03a6.353 6.353 0 01-3.284-.589h-.059c-.653-.323-1.043-.667-.819-1.872 0 0 4.289-22.21 4.318-22.279.176-.901.468-1.343 1.238-1.49a6.242 6.242 0 011.55 0 5.369 5.369 0 012.173.706c.52.359.767 1 .624 1.617l-.088.451a6.152 6.152 0 012.105-1.872c.941-.532 2.001-.816 3.08-.823 3.84-.05 5.478 3.185 5.468 6.87v.02zm-6.462.637c0-1.215-.38-2.44-1.705-2.44-.504.007-.991.183-1.384.5a6.513 6.513 0 00-1.95 4.038l-.809 4.558c.28.264.612.464.975.588.251.065.51.098.77.098 2.417-.02 4.103-4.293 4.103-7.361v.02z" fill="#FFF" fill-rule="evenodd"/></svg>