<svg xmlns="http://www.w3.org/2000/svg" version="1.1" id="Layer_1" x="0" y="0" viewBox="0 0 85.6 20.5" xml:space="preserve"><style>.st0{fill:#474748}.st2{fill:#FA0050}</style><path class="st0" d="M27.4 11.8c0-.8.1-1.5.5-2.2.6-1.3 1.6-2.4 3-2.9.7-.3 1.4-.5 2.2-.4.7 0 1.4.1 2.1.4.6.3 1.2.6 1.7 1.1.1.1.1.1.1.2s0 .2-.1.2l-1.3 1.3c-.1 0-.1.1-.2.1s-.1 0-.2-.1c-.3-.3-.6-.5-1-.6-.4-.1-.8-.2-1.2-.2-.4 0-.8.1-1.2.3-.4.2-.7.4-1 .7-.3.3-.5.6-.7 1-.2.4-.2.8-.2 1.3 0 1.3.7 2.4 1.9 2.9.4.2.8.3 1.3.2.4 0 .8-.1 1.1-.2.4-.1.7-.3 1-.6.1 0 .1-.1.2-.1s.2 0 .2.1l1.3 1.3c0 .1.1.1.1.2s0 .2-.1.2c-.5.5-1.1.9-1.8 1.1-.6.2-1.3.4-2 .4-1.5 0-2.9-.6-4-1.6-.5-.5-.9-1.1-1.2-1.8-.3-.8-.5-1.5-.5-2.3zM37.8 13.1V6.7c0-.1 0-.2.1-.2.1-.1.1-.1.2-.1H40c.1 0 .1 0 .2.1s.1.1.1.2V13c0 .3 0 .5.1.8.1.2.2.4.4.6.2.2.4.3.6.4.2.1.5.2.8.2.3 0 .5-.1.8-.2.2-.1.4-.2.6-.4.2-.2.3-.4.4-.6.1-.2.1-.5.1-.8V6.7c0-.1 0-.2.1-.2.1-.1.1-.1.2-.1h1.9c.1 0 .2 0 .2.1.1.1.1.1.1.2v6.4c0 .6-.1 1.1-.3 1.7-.2.5-.6 1-1 1.4-.4.4-.9.7-1.4.9-.5.2-1.1.3-1.7.3-.6 0-1.2-.1-1.7-.3-.5-.2-1-.5-1.4-.9-.4-.4-.7-.9-.9-1.4-.3-.6-.5-1.1-.4-1.7zm1.1-8.9c0-.3.1-.6.3-.8.2-.2.5-.3.8-.3.3 0 .6.1.8.3.2.2.3.5.3.8 0 .6-.5 1.1-1.1 1.1-.3 0-.6-.1-.8-.3-.2-.2-.3-.5-.3-.8zm4.2 0c0-.3.1-.6.3-.8.2-.2.5-.3.8-.3.3 0 .6.1.8.3.2.2.3.5.3.8 0 .3-.1.6-.3.8-.2.2-.5.3-.8.3-.3 0-.6-.1-.8-.3-.2-.2-.3-.5-.3-.8zM47.4 17v-.3l4.1-8h-3.4c-.1 0-.3-.1-.3-.3V6.7c0-.1 0-.2.1-.2.1-.1.1-.1.2-.1h6.6c.1 0 .2 0 .2.1.1.1.1.1.1.2v.2L51 15h3.4c.1 0 .2 0 .2.1.1.1.1.1.1.2V17c0 .1 0 .2-.1.2-.1.1-.1.1-.2.1h-6.8c-.1 0-.2 0-.2-.1V17zM65.1 16.8L70 6.4c0-.1.2-.2.3-.2h.2c.1 0 .2.1.3.2l4.9 10.4v.2c-.1.1-.2.1-.3.1h-1.7c-.1 0-.2 0-.3-.1-.1-.1-.2-.2-.2-.3l-.6-1.2h-4.2l-.6 1.3c0 .1-.1.2-.2.3-.1.1-.2.1-.4.1h-1.7c-.2 0-.3-.1-.3-.2-.1-.1-.1-.1-.1-.2zm4-3.3h2.4l-1.2-2.6-1.2 2.6zM76.3 6.5c0-.1 0-.1.1-.2s.1-.1.2-.1h.4l6.2 6V6.7c0-.1 0-.2.1-.2.1-.1.1-.1.2-.1h1.9c.1 0 .1 0 .2.1s.1.1.1.2v10.5c0 .1 0 .1-.1.2s-.1.1-.2.1H85s-.1 0-.1-.1l-6.1-6.2V17c0 .2-.1.3-.3.3h-1.8c-.2 0-.3-.1-.3-.3l-.1-10.5zM65.2 9.7c-.3-.6-.7-1.2-1.2-1.7s-1.1-.9-1.7-1.1c-.7-.3-1.4-.4-2.1-.4h-3.7c-.1 0-.1 0-.2.1s-.1.1-.1.2v2h3.9c.4 0 .8.1 1.2.2.4.1.7.4 1 .7.3.3.5.6.6 1 .3.8.3 1.7 0 2.5-.1.4-.4.7-.6 1-.3.3-.6.5-1 .7-.3 0-.7.1-1.2.1h-1.5v-4.6c0-.3-.3-.6-.6-.6h-1.9V17c0 .1 0 .2.1.2 0 .1.1.1.2.1h3.8c.7 0 1.4-.1 2.1-.4 1.3-.6 2.3-1.6 2.9-2.9.3-.7.4-1.4.4-2.1 0-.8-.1-1.5-.4-2.2z"/><g><path d="M17.5 9.5c-1.4.1-2.5 1.3-2.5 2.8.1 1.3 1.1 2.4 2.5 2.5h3.8c.3 0 .6-.2.6-.6 0-.3-.2-.7-.5-.7H19.1c-.2 0-.3-.1-.4-.3 0-.2.1-.4.3-.4h2.6c.3 0 .6-.2.6-.6 0-.3-.2-.7-.5-.7h-2.6c-.2 0-.3-.1-.4-.3 0-.2.1-.4.3-.4h2.1c.3 0 .6-.2.6-.6 0-.3-.2-.7-.5-.7h-3.7z" fill-rule="evenodd" clip-rule="evenodd" fill="#FA0050"/><path class="st2" d="M21.4 16.2v2.2c0 1.2-.9 2.1-2.1 2.1H2.1c-1.2 0-2.1-.9-2.1-2.1v-5.7c.2.1.4.1.6.1h12.5c.4 0 .7.2.8.6.5 1.5 1.8 2.5 3.4 2.5h3.8c.2 0 .3.1.3.3zM21.4 8.1V5.7c0-1.1-.9-2-2-2H2.6c-.6 0-1.1-.4-1.1-1-.1-.6.3-1.2 1-1.3H18c.4 0 .8.2 1 .5.2.3.6.5.9.3.4-.2.5-.6.3-1C19.8.5 19 0 18 0H2.5C1.1 0 0 1.1 0 2.5v8.3c0 .4.3.7.6.7h12.5c.4 0 .7-.2.8-.6.5-1.5 1.8-2.5 3.4-2.5h3.8c.2 0 .3-.2.3-.3z"/></g></svg>